<svg width="20" height="20" viewBox="0 0 20 20" fill="none" xmlns="http://www.w3.org/2000/svg">
    <g clip-path="url(#a)" fill="currentColor">
        <path d="M18.46 12.564a.498.498 0 0 0-.499.498v4.423a1.496 1.496 0 0 1-1.494 1.494H2.49c-.825 0-1.494-.67-1.495-1.494V4.505A1.496 1.496 0 0 1 2.491 3.01h4.422a.498.498 0 1 0 0-.996H2.491A2.493 2.493 0 0 0 0 4.504v12.98a2.493 2.493 0 0 0 2.49 2.491h13.977a2.493 2.493 0 0 0 2.49-2.49v-4.423a.498.498 0 0 0-.498-.498z"/>
        <path d="M18.76.732a2.241 2.241 0 0 0-3.17 0L6.704 9.62a.498.498 0 0 0-.128.22l-1.169 4.218a.498.498 0 0 0 .613.613l4.219-1.169a.499.499 0 0 0 .22-.127l8.886-8.887a2.244 2.244 0 0 0 0-3.17L18.76.732zM7.789 9.942l7.273-7.272 2.345 2.345-7.273 7.273L7.79 9.943zm-.469.94 1.874 1.875-2.592.718.718-2.592zm11.32-7.1-.528.529-2.346-2.346.529-.528a1.245 1.245 0 0 1 1.76 0l.585.584a1.247 1.247 0 0 1 0 1.762z"/>
    </g>
    <defs>
        <clipPath id="a">
            <path fill="currentColor" d="M0 0h20v20H0z"/>
        </clipPath>
    </defs>
</svg>
