
<svg width="20" height="20" xmlns="http://www.w3.org/2000/svg"
 width="1027.000000pt" height="974.000000pt" viewBox="0 0 1027.000000 974.000000"
 preserveAspectRatio="xMidYMid meet">

<g transform="translate(0.000000,974.000000) scale(0.100000,-0.100000)"
fill="#03008f" stroke="none">
<path d="M4785 9714 c-276 -26 -390 -44 -565 -85 -587 -139 -1083 -411 -1514
-829 -605 -586 -946 -1361 -973 -2210 -13 -429 60 -849 222 -1270 44 -116 181
-396 226 -465 18 -27 69 -104 112 -170 44 -66 95 -139 113 -162 33 -40 34 -45
34 -127 l0 -86 -291 0 c-281 0 -308 -2 -343 -31 -6 -5 -61 -42 -123 -81 l-112
-73 -1 -282 0 -282 53 -3 c51 -3 52 -4 55 -36 4 -43 34 -41 42 3 l5 30 316 2
316 2 12 -25 c7 -17 11 -134 11 -369 0 -189 3 -346 8 -348 4 -3 64 -8 135 -11
l127 -8 0 221 0 221 373 0 c204 0 829 2 1387 5 558 3 1404 2 1880 -2 l865 -8
3 -225 c1 -123 6 -227 11 -230 5 -3 50 -4 100 -2 l91 3 2 332 c2 302 3 356 7
395 0 6 9 12 20 12 10 0 21 9 24 20 5 20 12 20 475 20 490 -1 502 -2 487 -42
-7 -19 20 -42 40 -34 9 3 15 18 15 35 0 27 3 29 43 34 65 7 1000 8 1046 1 34
-5 40 -10 43 -33 2 -18 10 -27 26 -29 l22 -3 0 323 0 324 -117 42 -118 43
-937 -1 -938 0 0 157 0 157 89 135 c294 448 454 849 530 1331 55 350 54 665
-5 1020 -93 560 -300 1025 -664 1492 -80 102 -368 393 -470 475 -257 205 -540
373 -815 484 -286 114 -557 185 -860 223 -118 15 -442 28 -520 20z m-236 -644
l22 -70 75 0 c41 0 74 -3 74 -7 0 -5 -25 -25 -55 -46 -30 -21 -55 -44 -55 -50
0 -12 22 -88 35 -119 11 -27 -10 -22 -64 17 -26 19 -54 35 -60 35 -10 0 -64
-32 -107 -65 -24 -18 -26 3 -5 60 12 32 19 65 16 74 -3 9 -28 31 -55 50 -28
18 -50 37 -50 42 0 5 31 9 69 9 43 0 72 5 78 13 5 6 17 38 27 70 9 31 20 57
25 57 4 0 17 -31 30 -70z m2004 -140 c171 -43 310 -134 409 -268 241 -326 173
-780 -154 -1025 -34 -25 -58 -34 -58 -22 0 3 13 29 30 58 70 125 102 299 81
440 -15 98 -21 117 -73 223 -74 152 -191 266 -350 338 -81 37 -209 66 -292 66
-76 0 -208 -27 -274 -56 -30 -13 -57 -22 -60 -19 -9 9 50 76 106 121 66 52
160 106 217 124 134 44 293 52 418 20z m-1904 -600 c8 -26 15 -30 45 -30 43 0
44 -5 10 -32 -22 -18 -25 -26 -19 -55 3 -20 3 -33 -2 -31 -4 2 -20 10 -35 17
-24 12 -30 12 -46 -2 -28 -25 -35 -21 -28 18 6 29 3 36 -19 51 -35 23 -31 34
11 34 30 0 37 4 45 30 6 17 15 30 19 30 4 0 13 -13 19 -30z m-784 -240 l39 0
-33 -27 c-30 -26 -32 -30 -21 -57 13 -36 6 -45 -18 -23 -23 21 -41 21 -70 1
-30 -20 -36 -14 -20 21 11 25 10 29 -15 51 -35 30 -34 34 7 34 31 0 36 4 47
38 l13 37 15 -37 c15 -35 19 -38 56 -38z m1841 -210 c41 0 42 -8 8 -35 -22
-18 -24 -24 -15 -47 13 -34 -3 -47 -28 -24 -22 20 -40 20 -63 -1 -24 -22 -31
-13 -18 23 10 26 9 31 -14 49 -34 27 -33 33 7 37 26 2 35 10 47 37 l15 34 14
-36 c12 -33 18 -37 47 -37z m-2976 29 c5 -19 14 -25 45 -29 l40 -5 -28 -19
c-25 -17 -28 -23 -22 -58 7 -40 -3 -49 -25 -23 -7 8 -20 15 -30 15 -10 0 -23
-7 -30 -15 -22 -26 -33 -17 -25 22 6 32 3 39 -22 59 l-28 23 38 1 c24 0 39 5
42 15 3 8 7 22 10 31 7 22 28 12 35 -17z m1663 -284 c-4 -16 -12 -21 -37 -21
-27 0 -32 3 -28 18 2 10 -1 18 -8 18 -7 0 -2 10 11 23 24 22 24 22 45 3 12
-12 19 -27 17 -41z m3297 -410 c0 -8 7 -15 16 -15 11 0 14 -5 10 -16 -3 -9 -6
-21 -6 -28 0 -7 -13 -13 -29 -13 -37 0 -51 39 -25 68 21 23 34 24 34 4z
m-1413 -75 c8 -22 18 -30 37 -30 34 0 40 -14 15 -36 -16 -14 -19 -26 -14 -51
7 -38 4 -39 -30 -17 -23 15 -27 15 -50 0 -34 -22 -37 -21 -30 17 5 25 2 37
-14 51 -29 26 -26 36 10 36 24 0 32 6 40 30 6 17 14 30 18 30 4 0 12 -13 18
-30z m-1017 -90 c0 -5 7 -10 16 -10 11 0 14 -5 10 -16 -3 -9 -6 -22 -6 -30 0
-9 -10 -14 -27 -14 -37 0 -58 40 -34 63 19 18 41 21 41 7z m-1780 -147 c0 -8
13 -13 35 -13 41 0 44 -9 10 -38 -21 -18 -23 -25 -15 -48 16 -40 3 -44 -42
-12 -14 10 -20 9 -36 -5 -25 -23 -46 -22 -37 1 17 42 16 51 -9 67 -35 23 -33
35 8 35 28 0 36 5 47 31 12 29 13 30 26 13 7 -10 13 -24 13 -31z m1950 -442
c0 -27 28 -53 50 -46 27 9 33 -11 9 -28 -18 -13 -20 -21 -14 -58 l7 -42 -31
22 c-29 21 -32 21 -53 7 -33 -24 -41 -20 -34 16 5 27 2 36 -21 55 l-28 22 37
1 c33 0 38 4 48 35 12 38 30 47 30 16z m-1035 -129 c-3 -8 -5 -20 -5 -28 0 -9
-12 -14 -36 -14 -22 0 -33 4 -29 10 4 6 1 18 -6 26 -6 8 -10 15 -8 17 38 21
44 23 66 13 13 -6 21 -17 18 -24z m-2248 -222 c13 0 14 -3 5 -12 -7 -7 -12
-19 -12 -28 0 -12 -9 -17 -29 -17 -23 0 -30 5 -34 25 -6 32 32 70 46 46 4 -8
15 -14 24 -14z m5607 15 c3 -8 13 -15 23 -15 13 0 14 -3 5 -12 -7 -7 -12 -19
-12 -29 0 -12 -8 -16 -30 -15 -20 1 -30 6 -30 17 0 8 -5 20 -12 27 -9 9 -8 12
4 12 9 0 18 7 22 15 3 8 10 15 15 15 5 0 11 -7 15 -15z m-4502 -242 c2 -21 9
-29 28 -31 52 -6 57 -12 27 -36 -25 -20 -27 -25 -17 -51 16 -41 3 -45 -42 -13
-14 10 -20 9 -36 -5 -38 -35 -47 -20 -25 39 2 6 -7 19 -21 28 -36 23 -32 36 8
36 29 0 36 5 45 30 13 37 29 39 33 3z m3231 -81 c-4 -16 -13 -22 -33 -22 -38
0 -49 38 -18 61 20 15 23 15 39 0 12 -11 16 -25 12 -39z m-3385 -919 c3 -68 2
-73 -20 -78 -13 -3 -162 -4 -333 -3 l-310 3 -3 78 -3 77 333 -2 333 -3 3 -72z
m4397 -3 l0 -75 -330 0 -330 0 -3 64 c-2 35 -1 70 2 78 5 11 63 13 333 11
l328 -3 0 -75z m-989 -208 c6 -4 71 -95 144 -202 73 -107 153 -223 177 -257
l43 -61 -2 -259 -3 -258 -1965 -3 c-1081 -1 -1974 0 -1985 2 -20 5 -20 12 -17
294 l3 290 177 168 c97 93 206 197 242 231 l65 63 1555 0 c855 0 1560 -4 1566
-8z"/>
<path d="M9659 3155 c-26 -14 -34 -28 -82 -136 -20 -47 -68 -218 -92 -331 -8
-39 -25 -35 -25 6 0 42 -51 121 -99 153 -25 17 -48 23 -87 23 -80 0 -81 -4
-93 -326 -7 -172 -14 -270 -21 -272 -23 -8 -38 -33 -44 -74 -7 -43 -30 -88
-44 -88 -5 0 -17 9 -29 19 -15 14 -23 41 -31 104 -28 213 -103 317 -231 317
-114 0 -214 -109 -280 -306 -30 -90 -91 -345 -91 -381 0 -11 -9 -28 -19 -37
-11 -10 -23 -31 -26 -47 -10 -47 -35 -89 -52 -89 -37 0 -50 36 -55 152 -8 167
-51 259 -140 298 -63 27 -84 25 -157 -11 -45 -23 -75 -47 -107 -88 -42 -53
-124 -207 -139 -261 -3 -14 -10 -34 -15 -45 -39 -94 -92 -297 -88 -338 3 -28
7 -32 30 -32 21 1 30 -6 39 -30 44 -120 117 -185 208 -185 139 0 265 119 326
308 15 48 21 54 66 73 59 26 110 80 140 148 12 28 27 51 34 51 6 0 21 -19 31
-42 75 -169 245 -202 376 -74 72 70 116 161 143 292 4 23 14 33 40 43 52 18
92 65 135 156 45 92 59 147 68 260 4 45 11 79 17 78 11 -2 14 -17 50 -282 18
-129 30 -190 42 -203 25 -28 74 -23 106 10 47 49 68 122 78 277 15 219 40 437
55 473 26 64 38 41 66 -130 33 -199 56 -274 98 -310 35 -32 58 -35 106 -12 50
24 84 62 114 129 34 73 89 296 97 386 5 59 3 69 -17 89 -32 32 -48 11 -59 -77
-17 -133 -84 -220 -110 -141 -10 31 -26 128 -51 303 -6 44 -16 99 -22 123 -19
78 -92 113 -159 77z m-835 -761 c19 -18 42 -99 51 -175 l6 -56 -40 -26 c-35
-23 -41 -32 -41 -63 0 -42 19 -81 54 -111 45 -39 30 -141 -24 -163 -86 -36
-126 88 -118 365 5 161 19 212 62 233 29 14 32 14 50 -4z m-744 -394 c23 -13
38 -60 41 -130 3 -110 2 -115 -36 -133 -64 -31 -68 -107 -9 -170 23 -25 26
-35 22 -79 -8 -80 -64 -118 -112 -76 -40 35 -50 119 -36 291 14 166 32 243 67
279 29 31 36 33 63 18z"/>
<path d="M1068 3007 c-110 -47 -188 -138 -188 -220 0 -126 105 -212 285 -235
32 -4 59 -11 59 -17 0 -5 -37 -29 -82 -53 l-82 -43 -82 12 c-110 16 -319 7
-353 -15 -14 -9 -25 -23 -25 -31 0 -23 31 -47 54 -40 44 12 233 18 240 7 4 -7
-26 -27 -76 -52 -46 -23 -110 -57 -143 -75 -33 -18 -94 -45 -135 -61 -65 -25
-89 -29 -175 -29 -89 0 -104 3 -133 23 -39 28 -62 70 -62 112 0 67 45 100 135
100 49 0 60 4 91 33 84 77 34 222 -84 242 -48 8 -162 -32 -215 -76 -51 -42
-97 -139 -97 -205 0 -215 193 -423 435 -470 88 -17 132 -17 220 0 217 42 373
119 554 273 41 35 80 63 88 63 20 0 123 -69 123 -83 0 -7 -28 -28 -62 -47 -81
-44 -292 -191 -342 -238 -85 -81 -115 -235 -60 -302 45 -53 97 -73 204 -78
109 -5 224 14 359 59 46 16 87 26 92 23 5 -3 -3 -28 -18 -57 -22 -42 -27 -66
-28 -123 0 -61 4 -76 27 -110 33 -47 71 -71 142 -90 95 -25 187 -15 311 37
l54 22 50 -21 c55 -24 119 -28 187 -11 33 9 48 8 58 0 17 -14 74 7 159 59 32
19 67 40 78 46 12 7 26 17 32 23 18 18 29 13 15 -7 -7 -11 -56 -65 -108 -121
-217 -233 -210 -224 -210 -258 0 -62 68 -80 171 -44 30 10 124 65 209 122 302
203 375 242 394 210 6 -9 1 -14 -112 -136 -86 -93 -160 -199 -168 -242 -9 -49
7 -77 61 -103 39 -19 57 -22 108 -17 82 7 233 68 414 166 39 21 44 21 59 7 8
-9 25 -16 36 -16 15 0 18 -4 13 -17 -32 -78 -26 -138 21 -220 101 -175 423
-119 721 123 31 25 48 33 65 29 19 -5 37 7 93 59 74 69 90 76 111 49 19 -26
17 -72 -11 -213 -40 -206 -43 -213 -95 -228 -263 -78 -387 -134 -470 -215 -76
-75 -89 -176 -32 -251 l27 -35 133 -1 c100 0 142 4 166 15 74 35 261 189 404
332 127 127 164 158 218 183 88 40 247 155 314 227 79 84 98 124 64 137 -30
12 -59 -6 -112 -69 -55 -66 -197 -183 -209 -172 -3 4 24 55 60 114 70 117 145
261 171 333 23 63 34 164 25 216 -29 153 -176 155 -227 3 -15 -44 -15 -98 -1
-173 19 -105 -13 -237 -101 -422 -63 -131 -130 -204 -130 -141 0 12 9 53 20
91 17 61 39 169 71 348 17 99 15 243 -5 273 -42 65 -110 51 -181 -36 -22 -27
-99 -118 -171 -202 -130 -151 -131 -152 -170 -149 -34 2 -50 -6 -124 -59 -198
-144 -349 -172 -375 -69 -9 38 12 56 89 74 172 42 386 192 433 303 19 46 11
105 -20 150 -99 145 -360 73 -662 -182 -112 -94 -135 -109 -147 -97 -18 18
-29 15 -90 -22 -98 -58 -192 -82 -204 -51 -10 24 -1 35 196 250 36 39 82 96
103 127 37 54 38 56 24 89 -8 19 -24 43 -37 54 -51 45 -180 10 -497 -138 -31
-14 -37 -5 -14 20 24 26 53 107 54 153 1 47 -25 105 -57 125 -35 23 -73 9
-161 -60 -38 -30 -119 -89 -180 -132 -60 -42 -119 -85 -130 -96 -13 -11 -27
-16 -40 -12 -51 17 -69 16 -114 -4 -69 -29 -81 -28 -81 12 0 27 11 43 61 92
78 77 111 125 139 202 20 55 21 68 11 109 -17 67 -47 101 -108 124 -139 52
-315 10 -671 -161 -109 -52 -187 -71 -362 -85 -81 -7 -111 9 -93 49 23 50 250
210 456 321 l89 48 74 -11 c232 -34 477 11 586 109 45 40 52 52 52 83 0 63
-64 112 -175 137 -72 16 -285 8 -389 -15 -93 -20 -360 -104 -378 -118 -14 -11
-114 35 -166 77 l-29 23 84 63 c46 35 100 78 119 96 44 41 119 78 190 94 78
17 120 30 120 39 0 22 -32 42 -82 51 -43 8 -86 7 -181 -5 -69 -8 -152 -15
-184 -15 -65 0 -164 23 -195 45 -33 22 -58 67 -58 104 0 46 60 107 115 115
104 17 114 34 45 80 -40 27 -54 31 -135 33 -77 3 -98 0 -147 -20z m1283 -777
c43 -24 10 -57 -89 -91 -84 -29 -139 -40 -204 -40 -110 -1 -94 18 67 79 171
65 192 70 226 52z m-10 -500 c44 -24 17 -90 -73 -172 -43 -40 -58 -48 -78 -43
-73 18 -87 17 -113 -8 -18 -16 -30 -41 -37 -77 -11 -59 -21 -75 -61 -96 -84
-43 -147 14 -105 94 42 79 316 289 397 305 42 8 50 7 70 -3z m1847 -522 c4
-37 -33 -89 -103 -143 -60 -47 -94 -61 -120 -51 -27 10 -16 34 48 102 72 78
134 126 156 122 9 -2 17 -15 19 -30z m262 -807 c0 -51 -93 -216 -154 -273 -42
-40 -124 -78 -167 -78 -48 0 -89 37 -89 80 0 97 104 193 275 254 116 41 135
43 135 17z"/>
<path d="M6124 2071 c-165 -60 -253 -179 -363 -491 -7 -19 -15 -95 -18 -167
-5 -107 -2 -147 12 -205 22 -94 73 -194 130 -258 25 -28 45 -56 45 -63 0 -7
-9 -53 -20 -103 -23 -106 -26 -212 -6 -239 17 -24 78 -25 122 -2 84 43 156
133 178 222 10 38 24 55 46 55 24 0 110 47 132 72 21 25 23 39 6 56 -17 17
-36 15 -68 -8 -15 -11 -39 -24 -53 -29 l-27 -10 7 47 c12 99 114 374 203 552
42 84 102 160 126 160 22 0 36 -50 29 -100 -6 -42 -99 -459 -130 -580 -23 -93
-49 -266 -42 -283 23 -60 137 -36 220 46 69 68 91 116 122 267 27 132 38 173
62 230 93 222 196 390 239 390 7 0 17 -12 20 -27 10 -40 -14 -254 -52 -452
-19 -99 -17 -158 6 -209 27 -60 45 -74 100 -80 64 -6 127 25 198 98 114 117
255 352 233 388 -16 26 -52 -5 -121 -104 -137 -200 -170 -158 -103 130 34 150
52 231 63 293 6 29 15 64 20 78 13 35 13 168 -1 198 -14 32 -59 57 -101 57
-42 0 -121 -37 -175 -82 -72 -60 -181 -210 -239 -326 -12 -24 -24 -40 -27 -35
-3 5 3 61 14 124 34 202 20 312 -42 344 -76 40 -222 -53 -335 -211 -24 -34
-44 -66 -44 -72 0 -6 -4 -12 -9 -14 -4 -1 -34 -52 -65 -113 l-57 -110 8 85 c4
47 8 146 8 220 -1 130 -2 137 -30 188 -48 88 -117 110 -221 73z m-55 -221 c15
0 31 -51 31 -95 0 -44 -6 -80 -56 -330 -15 -71 -30 -150 -35 -175 -4 -25 -15
-76 -24 -115 -9 -38 -18 -83 -22 -98 -3 -15 -11 -26 -17 -24 -18 6 -75 108
-93 167 -24 77 -24 300 0 390 52 190 129 302 195 284 8 -2 17 -4 21 -4z"/>
</g>
</svg>
