<svg width="16" height="16" viewBox="0 0 16 16" fill="none" xmlns="http://www.w3.org/2000/svg">
    <path d="m14.94 15.474-1.217-11.58a.476.476 0 0 0-.474-.427h-2.285v-.521A2.95 2.95 0 0 0 8.018 0a2.95 2.95 0 0 0-2.946 2.946v.521H2.786a.476.476 0 0 0-.474.427l-1.216 11.58A.477.477 0 0 0 1.57 16h12.895a.476.476 0 0 0 .474-.526zM6.023 2.946c0-1.1.894-1.994 1.994-1.994s1.993.895 1.993 1.994v.521H6.024v-.521zM2.1 15.048 3.215 4.42h1.857v1.049a.476.476 0 0 0 .952 0v-1.05h3.987v1.05a.476.476 0 0 0 .953 0v-1.05h1.857l1.116 10.629H2.099z" fill="#fff"/>
</svg>
